<?xml version="1.0" encoding="UTF-8"?>
<!DOCTYPE svg PUBLIC "-//W3C//DTD SVG 1.1//EN" "http://www.w3.org/Graphics/SVG/1.1/DTD/svg11.dtd">
<!-- Creator: CorelDRAW X8 -->
<svg xmlns="http://www.w3.org/2000/svg" xml:space="preserve" width="2.67306in" height="2.6048in" version="1.1" style="shape-rendering:geometricPrecision; text-rendering:geometricPrecision; image-rendering:optimizeQuality; fill-rule:evenodd; clip-rule:evenodd"
viewBox="0 0 827 806"
 xmlns:xlink="http://www.w3.org/1999/xlink">
 <defs>
  <style type="text/css">
   <![CDATA[
    .fil1 {fill:#FEFEFE}
    .fil0 {fill:#FF595E}
    .fil2 {fill:#FF595E;fill-rule:nonzero}
   ]]>
  </style>
 </defs>
 <g id="Layer_x0020_1">
  <metadata id="CorelCorpID_0Corel-Layer"/>
  <g id="_2653562070256">
   <path class="fil0" d="M100 0l169 0c-90,51 -150,147 -150,258 0,111 60,207 150,258l-169 0c-48,0 -88,-40 -88,-88l0 -340c0,-48 40,-88 88,-88zm461 0l169 0c49,0 88,40 88,88l0 340c0,48 -39,88 -88,88l-169 0c90,-51 150,-147 150,-258 0,-111 -60,-207 -150,-258z"/>
   <path class="fil0" d="M415 46c117,0 212,95 212,212 0,117 -95,212 -212,212 -117,0 -212,-95 -212,-212 0,-117 95,-212 212,-212z"/>
   <path class="fil1" d="M389 99c-31,15 -23,56 2,66 27,11 100,3 113,95 7,54 44,49 60,38 38,-24 10,-145 -85,-189 -23,-11 -65,-22 -90,-10z"/>
   <path class="fil2" d="M37 803c-2,0 -4,0 -5,-2 -1,-1 -2,-2 -2,-4l0 -117 -24 0c-1,0 -3,0 -4,-2 -1,-1 -2,-2 -2,-4l0 -10c0,-2 1,-3 2,-4 1,-2 3,-2 4,-2l24 0 0 -14c0,-32 16,-48 48,-48l17 0c2,0 4,1 5,2 1,1 2,3 2,5l0 9c0,2 -1,4 -2,5 -1,1 -3,2 -5,2l-16 0c-8,0 -14,2 -18,6 -3,5 -5,11 -5,20l0 13 36 0c2,0 4,0 5,2 1,1 2,2 2,4l0 10c0,2 -1,3 -2,4 -1,2 -3,2 -5,2l-36 0 0 117c0,2 0,3 -2,4 -1,2 -2,2 -4,2l-13 0zm143 3c-20,0 -36,-6 -47,-17 -12,-12 -18,-27 -19,-46l0 -12 0 -12c1,-20 7,-35 19,-47 11,-11 27,-17 47,-17 21,0 36,6 48,17 11,12 17,27 18,47 0,2 0,6 0,12 0,6 0,10 0,12 -1,19 -7,34 -18,46 -11,11 -27,17 -48,17zm0 -21c12,0 21,-4 28,-12 7,-7 11,-18 11,-32 0,-2 0,-5 0,-10 0,-6 0,-9 0,-11 0,-14 -4,-25 -11,-32 -7,-8 -16,-11 -28,-11 -12,0 -21,3 -28,11 -7,7 -10,18 -11,32l0 11 0 10c1,14 4,25 11,32 7,8 16,12 28,12zm157 18c-30,0 -45,-16 -45,-49l0 -74 -21 0c-2,0 -4,0 -5,-2 -1,-1 -2,-2 -2,-4l0 -10c0,-2 1,-3 2,-4 1,-2 3,-2 5,-2l21 0 0 -47c0,-2 1,-3 2,-5 1,-1 3,-1 5,-1l13 0c2,0 3,0 5,1 1,2 1,3 1,5l0 47 35 0c2,0 4,0 5,2 1,1 2,2 2,4l0 10c0,2 -1,3 -2,4 -1,2 -3,2 -5,2l-35 0 0 72c0,9 2,16 5,21 3,5 9,7 16,7l17 0c2,0 3,1 5,2 1,1 1,3 1,5l0 10c0,2 0,3 -1,4 -2,2 -3,2 -5,2l-19 0zm112 3c-21,0 -37,-6 -48,-17 -11,-12 -17,-27 -18,-46l0 -12 0 -12c1,-20 7,-35 18,-47 12,-11 28,-17 48,-17 20,0 36,6 47,17 12,12 18,27 19,47 0,2 0,6 0,12 0,6 0,10 0,12 -1,19 -7,34 -18,46 -12,11 -28,17 -48,17zm0 -21c12,0 21,-4 28,-12 7,-7 10,-18 11,-32 0,-2 0,-5 0,-10 0,-6 0,-9 0,-11 -1,-14 -4,-25 -11,-32 -7,-8 -16,-11 -28,-11 -12,0 -21,3 -28,11 -7,7 -11,18 -11,32l0 11 0 10c0,14 4,25 11,32 7,8 16,12 28,12zm107 18c-2,0 -3,0 -4,-2 -1,-1 -2,-2 -2,-4l0 -133c0,-2 1,-3 2,-4 1,-2 2,-2 4,-2l13 0c2,0 3,0 5,2 1,1 1,2 1,4l0 10c10,-13 24,-19 41,-19 21,0 35,9 44,26 4,-8 11,-14 19,-19 8,-5 17,-7 28,-7 15,0 27,5 37,16 10,10 15,25 15,45l0 81c0,2 -1,3 -2,4 -1,2 -3,2 -5,2l-13 0c-2,0 -3,0 -5,-2 -1,-1 -1,-2 -1,-4l0 -78c0,-15 -3,-25 -9,-32 -7,-6 -14,-9 -24,-9 -9,0 -17,3 -23,9 -6,7 -10,17 -10,32l0 78c0,2 0,3 -1,4 -2,2 -3,2 -5,2l-13 0c-2,0 -4,0 -5,-2 -1,-1 -2,-2 -2,-4l0 -78c0,-15 -3,-25 -9,-32 -6,-6 -14,-9 -24,-9 -8,0 -16,3 -22,9 -7,7 -10,17 -10,31l0 79c0,2 0,3 -2,4 -1,2 -2,2 -4,2l-14 0zm247 -172c-2,0 -4,-1 -5,-2 -1,-1 -2,-3 -2,-5l0 -15c0,-2 1,-3 2,-5 1,-1 3,-2 5,-2l18 0c1,0 3,1 4,2 2,2 2,3 2,5l0 15c0,2 0,4 -2,5 -1,1 -3,2 -4,2l-18 0zm2 172c-2,0 -3,0 -4,-2 -2,-1 -2,-2 -2,-4l0 -133c0,-2 0,-3 2,-4 1,-2 2,-2 4,-2l14 0c1,0 3,0 4,2 1,1 2,2 2,4l0 133c0,2 -1,3 -2,4 -1,2 -3,2 -4,2l-14 0z"/>
  </g>
 </g>
</svg>
