<?xml version="1.0" encoding="UTF-8"?>
<!DOCTYPE svg PUBLIC "-//W3C//DTD SVG 1.1//EN" "http://www.w3.org/Graphics/SVG/1.1/DTD/svg11.dtd">
<!-- Creator: CorelDRAW X8 -->
<svg xmlns="http://www.w3.org/2000/svg" xml:space="preserve" width="2.67306in" height="2.6048in" version="1.1" style="shape-rendering:geometricPrecision; text-rendering:geometricPrecision; image-rendering:optimizeQuality; fill-rule:evenodd; clip-rule:evenodd"
viewBox="0 0 2585 2519"
 xmlns:xlink="http://www.w3.org/1999/xlink">
 <defs>
  <style type="text/css">
   <![CDATA[
    .fil0 {fill:#BDBFC1}
    .fil1 {fill:#BDBFC1;fill-rule:nonzero}
   ]]>
  </style>
 </defs>
 <g id="Layer_x0020_1">
  <metadata id="CorelCorpID_0Corel-Layer"/>
  <g id="_2653394059616">
   <path class="fil0" d="M308 0l529 0c-281,159 -470,461 -470,806 0,346 189,648 470,807l-529 0c-151,0 -275,-124 -275,-276l0 -1062c0,-151 124,-275 275,-275zm985 145c365,0 661,296 661,661 0,366 -296,662 -661,662 -366,0 -662,-296 -662,-662 0,-365 296,-661 662,-661zm-83 166c-97,46 -72,173 8,206 82,33 312,7 352,295 23,170 138,153 189,120 117,-77 32,-453 -265,-593 -74,-34 -203,-67 -284,-28zm538 -311l529 0c152,0 276,124 276,275l0 1062c0,152 -124,276 -276,276l-529 0c281,-159 471,-461 471,-807 0,-345 -190,-647 -471,-806z"/>
   <path class="fil1" d="M115 2511c-6,0 -11,-2 -15,-6 -4,-4 -6,-9 -6,-15l0 -364 -74 0c-6,0 -11,-2 -14,-6 -4,-4 -6,-9 -6,-14l0 -30c0,-6 2,-11 6,-15 3,-3 8,-5 14,-5l74 0 0 -44c0,-99 51,-149 151,-149l52 0c6,0 11,2 15,6 4,4 5,9 5,14l0 30c0,6 -1,11 -5,15 -4,3 -9,5 -15,5l-50 0c-27,0 -45,7 -55,21 -11,14 -16,34 -16,62l0 40 113 0c5,0 10,2 14,5 4,4 6,9 6,15l0 30c0,5 -2,10 -6,14 -4,4 -9,6 -14,6l-113 0 0 364c0,6 -2,11 -6,15 -4,4 -8,6 -14,6l-41 0zm448 8c-64,0 -114,-18 -149,-54 -35,-36 -54,-84 -56,-144l-1 -38 1 -37c2,-60 21,-108 57,-144 35,-37 85,-55 148,-55 64,0 113,18 149,55 35,36 54,84 57,144 0,6 1,18 1,37 0,19 -1,31 -1,38 -3,60 -21,108 -57,144 -35,36 -85,54 -149,54zm0 -67c37,0 66,-12 87,-35 22,-23 33,-57 35,-101 0,-5 1,-17 1,-33 0,-16 -1,-27 -1,-33 -2,-44 -13,-77 -35,-101 -21,-23 -50,-35 -87,-35 -36,0 -66,12 -87,35 -22,24 -33,57 -34,101l-1 33 1 33c1,44 12,78 34,101 21,23 51,35 87,35zm489 59c-92,0 -138,-52 -138,-154l0 -231 -68 0c-6,0 -11,-2 -15,-6 -3,-4 -5,-9 -5,-14l0 -30c0,-6 2,-11 5,-15 4,-3 9,-5 15,-5l68 0 0 -146c0,-6 2,-11 6,-15 3,-4 8,-5 14,-5l41 0c6,0 11,1 15,5 3,4 5,9 5,15l0 146 109 0c6,0 10,2 14,5 4,4 6,9 6,15l0 30c0,5 -2,10 -6,14 -4,4 -8,6 -14,6l-109 0 0 224c0,30 5,52 15,67 10,14 26,22 49,22l53 0c6,0 11,2 15,6 4,3 6,8 6,14l0 31c0,6 -2,11 -6,15 -4,4 -9,6 -15,6l-60 0zm351 8c-64,0 -114,-18 -149,-54 -36,-36 -54,-84 -57,-144l-1 -38 1 -37c3,-60 22,-108 57,-144 36,-37 85,-55 149,-55 63,0 113,18 149,55 35,36 54,84 56,144 1,6 1,18 1,37 0,19 0,31 -1,38 -2,60 -21,108 -56,144 -35,36 -85,54 -149,54zm0 -67c37,0 66,-12 87,-35 21,-23 33,-57 34,-101 1,-5 1,-17 1,-33 0,-16 0,-27 -1,-33 -1,-44 -13,-77 -34,-101 -21,-23 -50,-35 -87,-35 -37,0 -66,12 -88,35 -21,24 -33,57 -34,101l-1 33 1 33c1,44 13,78 34,101 22,23 51,35 88,35zm336 59c-6,0 -11,-2 -15,-6 -4,-4 -5,-9 -5,-15l0 -414c0,-6 1,-11 5,-15 4,-3 9,-5 15,-5l39 0c6,0 11,2 14,5 4,4 6,9 6,15l0 30c30,-39 73,-59 127,-59 65,0 110,27 137,80 14,-24 34,-44 60,-58 25,-15 54,-22 86,-22 48,0 87,16 118,49 30,33 45,80 45,142l0 252c0,6 -2,11 -6,15 -3,4 -8,6 -14,6l-41 0c-6,0 -11,-2 -15,-6 -3,-4 -5,-9 -5,-15l0 -244c0,-46 -10,-79 -29,-98 -19,-20 -44,-30 -75,-30 -27,0 -51,10 -70,30 -20,20 -30,53 -30,98l0 244c0,6 -2,11 -6,15 -4,4 -8,6 -14,6l-41 0c-6,0 -11,-2 -15,-6 -4,-4 -5,-9 -5,-15l0 -244c0,-46 -10,-79 -30,-98 -19,-20 -44,-30 -74,-30 -27,0 -51,10 -70,30 -20,20 -30,52 -30,97l0 245c0,6 -2,11 -6,15 -4,4 -8,6 -14,6l-42 0zm770 -540c-6,0 -10,-2 -14,-6 -4,-4 -6,-8 -6,-14l0 -47c0,-6 2,-11 6,-15 4,-4 8,-6 14,-6l55 0c6,0 11,2 15,6 4,4 6,9 6,15l0 47c0,6 -2,10 -6,14 -4,4 -9,6 -15,6l-55 0zm7 540c-6,0 -10,-2 -14,-6 -4,-4 -6,-9 -6,-15l0 -414c0,-6 2,-11 6,-15 4,-3 8,-5 14,-5l42 0c6,0 11,2 15,5 3,4 5,9 5,15l0 414c0,6 -2,11 -5,15 -4,4 -9,6 -15,6l-42 0z"/>
  </g>
 </g>
</svg>
