<?xml version="1.0" encoding="UTF-8"?>
<!DOCTYPE svg PUBLIC "-//W3C//DTD SVG 1.1//EN" "http://www.w3.org/Graphics/SVG/1.1/DTD/svg11.dtd">
<!-- Creator: CorelDRAW X8 -->
<svg xmlns="http://www.w3.org/2000/svg" xml:space="preserve" width="8.16842in" height="1.39957in" version="1.1" style="shape-rendering:geometricPrecision; text-rendering:geometricPrecision; image-rendering:optimizeQuality; fill-rule:evenodd; clip-rule:evenodd"
viewBox="0 0 8348 1430"
 xmlns:xlink="http://www.w3.org/1999/xlink">
 <defs>
  <style type="text/css">
   <![CDATA[
    .fil1 {fill:#FEFEFE}
    .fil0 {fill:#FF595E}
    .fil2 {fill:#FF595E;fill-rule:nonzero}
   ]]>
  </style>
 </defs>
 <g id="Layer_x0020_1">
  <metadata id="CorelCorpID_0Corel-Layer"/>
  <g id="_2653550967248">
   <path class="fil0" d="M244 2l468 0c-249,140 -417,407 -417,713 0,306 168,573 417,714l-468 0c-134,0 -244,-110 -244,-244l0 -940c0,-134 110,-243 244,-243zm1274 0l468 0c134,0 243,109 243,243l0 940c0,134 -109,244 -243,244l-468 0c248,-141 416,-408 416,-714 0,-306 -168,-573 -416,-713z"/>
   <path class="fil0" d="M1115 130c323,0 585,262 585,585 0,323 -262,585 -585,585 -324,0 -586,-262 -586,-585 0,-323 262,-585 586,-585z"/>
   <path class="fil1" d="M1042 277c-86,41 -64,153 7,182 72,30 275,7 311,261 20,150 122,136 167,106 104,-68 28,-401 -234,-524 -65,-31 -180,-59 -251,-25z"/>
  </g>
  <path class="fil2" d="M2960 1411c-12,0 -23,-4 -31,-12 -8,-8 -13,-19 -13,-32l0 -795 -162 0c-12,0 -23,-4 -31,-12 -8,-9 -12,-19 -12,-32l0 -65c0,-12 4,-23 12,-31 8,-8 19,-12 31,-12l162 0 0 -96c0,-216 110,-324 329,-324l114 0c13,0 23,4 31,12 9,9 13,19 13,32l0 65c0,12 -4,23 -13,31 -8,8 -18,13 -31,13l-111 0c-57,0 -97,15 -120,44 -23,30 -34,76 -34,137l0 86 246 0c13,0 23,4 31,12 9,8 13,19 13,31l0 65c0,13 -4,23 -13,32 -8,8 -18,12 -31,12l-246 0 0 795c0,13 -4,24 -13,32 -8,8 -18,12 -31,12l-90 0zm979 19c-140,0 -249,-39 -325,-118 -77,-79 -118,-184 -123,-315l-2 -82 2 -82c5,-129 46,-234 123,-313 78,-80 186,-120 325,-120 138,0 246,40 324,120 77,79 119,184 124,313 1,14 2,42 2,82 0,41 -1,68 -2,82 -5,131 -46,236 -123,315 -77,79 -185,118 -325,118zm0 -147c80,0 143,-25 189,-76 47,-51 72,-124 76,-219 1,-13 2,-37 2,-73 0,-35 -1,-59 -2,-72 -4,-95 -29,-169 -76,-219 -46,-51 -109,-77 -189,-77 -80,0 -144,26 -191,77 -47,50 -72,124 -74,219l-2 72 2 73c2,95 27,168 74,219 47,51 111,76 191,76zm1066 128c-201,0 -302,-112 -302,-335l0 -504 -148 0c-13,0 -24,-4 -32,-12 -8,-9 -12,-19 -12,-32l0 -65c0,-12 4,-23 12,-31 8,-8 19,-12 32,-12l148 0 0 -319c0,-13 5,-23 13,-31 8,-9 19,-13 31,-13l90 0c13,0 23,4 31,13 9,8 13,18 13,31l0 319 236 0c13,0 23,4 32,12 8,8 12,19 12,31l0 65c0,13 -4,23 -12,32 -9,8 -19,12 -32,12l-236 0 0 490c0,64 11,112 32,144 22,33 57,49 107,49l116 0c13,0 24,4 32,12 8,9 12,19 12,32l0 68c0,13 -4,24 -12,32 -8,8 -19,12 -32,12l-131 0zm765 19c-140,0 -249,-39 -326,-118 -77,-79 -118,-184 -123,-315l-2 -82 2 -82c5,-129 47,-234 124,-313 78,-80 186,-120 325,-120 138,0 246,40 324,120 77,79 119,184 124,313 1,14 2,42 2,82 0,41 -1,68 -2,82 -5,131 -46,236 -123,315 -77,79 -186,118 -325,118zm0 -147c80,0 143,-25 189,-76 47,-51 72,-124 76,-219 1,-13 2,-37 2,-73 0,-35 -1,-59 -2,-72 -4,-95 -29,-169 -76,-219 -46,-51 -109,-77 -189,-77 -81,0 -144,26 -191,77 -47,50 -72,124 -75,219l-1 72 1 73c3,95 28,168 75,219 47,51 110,76 191,76zm732 128c-13,0 -23,-4 -32,-12 -8,-8 -12,-19 -12,-32l0 -904c0,-12 4,-23 12,-31 9,-8 19,-12 32,-12l86 0c12,0 23,4 31,12 8,8 13,19 13,31l0 67c66,-86 158,-130 276,-130 141,0 241,59 299,176 31,-53 74,-96 130,-128 56,-32 119,-48 189,-48 104,0 189,36 256,107 66,71 99,174 99,309l0 551c0,13 -4,24 -13,32 -8,8 -18,12 -31,12l-90 0c-13,0 -23,-4 -31,-12 -9,-8 -13,-19 -13,-32l0 -534c0,-99 -20,-170 -62,-213 -41,-43 -95,-65 -163,-65 -59,0 -111,22 -154,66 -43,44 -65,115 -65,212l0 534c0,13 -4,24 -12,32 -9,8 -19,12 -32,12l-90 0c-12,0 -23,-4 -31,-12 -8,-8 -12,-19 -12,-32l0 -534c0,-99 -22,-170 -64,-213 -43,-43 -97,-65 -161,-65 -60,0 -112,22 -155,66 -43,44 -65,114 -65,210l0 536c0,13 -4,24 -12,32 -8,8 -19,12 -32,12l-91 0zm1680 -1176c-13,0 -23,-5 -31,-13 -9,-8 -13,-19 -13,-31l0 -103c0,-13 4,-24 13,-33 8,-9 18,-13 31,-13l120 0c13,0 24,4 33,13 8,9 13,20 13,33l0 103c0,12 -5,23 -13,31 -9,8 -20,13 -33,13l-120 0zm15 1176c-12,0 -23,-4 -31,-12 -8,-8 -13,-19 -13,-32l0 -904c0,-12 5,-23 13,-31 8,-8 19,-12 31,-12l92 0c13,0 23,4 31,12 9,8 13,19 13,31l0 904c0,13 -4,24 -13,32 -8,8 -18,12 -31,12l-92 0z"/>
 </g>
</svg>
